<?xml version="1.0" encoding="UTF-8"?>
<svg width="1200pt" height="1200pt" version="1.1" viewBox="0 0 1200 1200" xmlns="http://www.w3.org/2000/svg">
 <path d="m600 84.375c-285 0-515.62 230.62-515.62 515.62s230.62 515.62 515.62 515.62 515.62-230.62 515.62-515.62-230.62-515.62-515.62-515.62zm0 308.91c54.844 0 99.844 44.531 99.844 99.844 0 54.844-44.531 131.25-99.844 131.25s-99.844-75.938-99.844-131.25 45-99.844 99.844-99.844zm0 415.78c-103.12 0-187.03-42.188-187.03-94.219 0-36.094 42.188-92.344 110.62-120.47l1.875-0.46875 0.9375 1.4062c21.562 27.656 47.812 43.125 73.594 43.125s52.031-15.469 73.594-43.125l0.9375-1.4062 1.875 0.46875c68.438 28.125 110.62 84.375 110.62 120.47 0 52.031-83.906 94.219-187.03 94.219z" fill="#4f4e4e"/>
</svg>
